<svg width="123" height="123" viewBox="0 0 123 123" fill="none" xmlns="http://www.w3.org/2000/svg">
<path d="M61.4858 122.972C95.4435 122.972 122.972 95.4435 122.972 61.4858C122.972 27.5281 95.4435 0 61.4858 0C27.5281 0 0 27.5281 0 61.4858C0 95.4435 27.5281 122.972 61.4858 122.972Z" fill="white"/>
<path d="M87.3269 90.6137C87.3836 90.557 87.4119 90.5287 87.4402 90.472C87.4119 90.5287 87.3836 90.557 87.3269 90.6137Z" fill="#EEA941"/>
<path d="M68.8811 75.2281L66.9544 80.1583L66.9261 80.385C66.8694 80.725 66.6994 81.0083 66.5294 81.2917L66.501 81.3483V81.32C66.1044 81.8867 65.5377 82.3117 64.8293 82.4534C63.7809 82.6517 62.7042 82.2267 62.1092 81.3767L46.9786 59.6441C46.6386 59.1624 46.4969 58.5957 46.4969 58.0574H46.4686V53.3822L46.5252 53.4389C46.5819 53.0139 46.6669 52.6172 46.8652 52.2205C47.4603 51.0871 48.5936 50.4071 49.8687 50.4071C50.0104 50.4071 50.1804 50.4071 50.3504 50.4354L77.0981 54.0906C78.4582 54.2889 79.5632 55.2523 79.9033 56.5557C80.0449 57.0373 80.0166 57.519 79.9316 58.0007L79.9599 57.9724L79.8749 58.1991C79.8183 58.3974 79.7616 58.5957 79.6766 58.7658L78.4865 62.4492V62.4209C78.3449 62.9309 78.0898 63.4126 77.6648 63.7526C80.3283 65.1127 83.4734 67.0961 86.2785 69.9012L83.8984 39.6683C83.8417 38.7899 83.105 38.1382 82.2267 38.1382H40.745C39.8666 38.1382 39.1583 38.8183 39.0733 39.6683L35.1631 89.282C35.0781 90.2454 35.8431 91.0954 36.8348 91.0954H71.8846C77.2115 82.4534 74.0947 77.8349 68.8811 75.2281Z" fill="#EEA941"/>
<path d="M87.6669 90.1037C87.6952 90.047 87.7236 89.9904 87.7236 89.9337C87.7236 89.9904 87.6952 90.047 87.6669 90.1037Z" fill="#EEA941"/>
<path d="M68.8811 75.2281L66.9544 80.1583L66.9261 80.385C66.8694 80.725 66.6994 81.0083 66.5294 81.2917L66.501 81.3483V81.32C66.1044 81.8867 65.5377 82.3117 64.8293 82.4534C63.7809 82.6517 62.7042 82.2267 62.1092 81.3767L56.9807 74.038C50.6904 78.9682 43.4084 82.7367 35.5031 84.9185L35.1631 89.3103C35.0781 90.2737 35.8431 91.1237 36.8348 91.1237H71.8846C77.2115 82.4534 74.0947 77.8348 68.8811 75.2281Z" fill="#ED793F"/>
<path d="M86.3068 69.9295C83.5017 67.1244 80.3283 65.1127 77.6932 63.7809C78.1182 63.4126 78.3732 62.9592 78.5149 62.4492V62.4776L79.7049 58.7941C79.7899 58.5957 79.8466 58.4257 79.9033 58.2274L79.9883 58.0007L79.9599 58.029C80.0449 57.5474 80.0449 57.0657 79.9316 56.584C79.5632 55.2806 78.4865 54.2889 77.1265 54.1189L73.8963 53.6655C76.3898 48.8203 78.2599 43.6351 79.4216 38.1666H82.2834C83.1617 38.1666 83.8701 38.8466 83.9551 39.6966L86.3068 69.9295Z" fill="#ED793F"/>
<path d="M73.188 64.1209C72.2813 63.7809 72.1113 62.5625 72.8763 61.9675L77.3815 58.454C78.2599 57.774 77.8915 56.3573 76.7865 56.2156L50.0387 52.5605C48.962 52.4188 48.197 53.6372 48.8487 54.5155C53.8922 61.7408 58.9357 68.9945 63.9793 76.2198C64.6026 77.1265 66.0194 76.8431 66.246 75.7664L67.4644 70.0428C67.6344 69.2778 68.4561 68.8245 69.1645 69.1361C75.4547 71.8846 79.6199 77.4948 79.8466 83.5301C79.9599 86.6185 78.9966 89.2253 77.9765 91.0954H86.1368C87.1002 91.0954 87.8652 90.2737 87.8086 89.282L86.5619 73.358C82.3117 68.1161 76.3614 65.311 73.188 64.1209Z" fill="#884594"/>
<path d="M75.2847 35.6731H72.3096C71.6012 35.6731 71.0629 35.1064 70.9496 34.4264C70.3262 29.7512 66.331 26.1527 61.4858 26.1527C56.6406 26.1527 52.6455 29.7512 52.0221 34.4264C51.9371 35.1348 51.3987 35.6731 50.6621 35.6731H47.6869C46.9219 35.6731 46.2702 35.0214 46.3269 34.2564C47.0352 26.5494 53.5522 20.4858 61.4575 20.4858C69.3628 20.4858 75.8798 26.5494 76.5881 34.2564C76.7015 35.0214 76.0498 35.6731 75.2847 35.6731Z" fill="#EEA941"/>
</svg>
