<svg width="75" height="75" viewBox="0 0 75 75" fill="none" xmlns="http://www.w3.org/2000/svg">
<path d="M52.8802 54.8709C52.9147 54.8364 52.9319 54.8192 52.9491 54.7848C52.9319 54.8192 52.9147 54.8364 52.8802 54.8709Z" fill="#EEA941"/>
<path d="M41.7105 45.5539L40.5437 48.5393L40.5266 48.6766C40.4923 48.8825 40.3893 49.0541 40.2864 49.2256L40.2692 49.26V49.2428C40.029 49.586 39.6859 49.8433 39.2569 49.9291C38.6221 50.0492 37.9701 49.7918 37.6098 49.2771L28.4475 36.1171C28.2416 35.8254 28.1558 35.4823 28.1558 35.1563H28.1387V32.3252L28.173 32.3596C28.2073 32.1022 28.2588 31.862 28.3789 31.6218C28.7392 30.9355 29.4255 30.5237 30.1976 30.5237C30.2834 30.5237 30.3863 30.5237 30.4893 30.5408L46.6862 32.7542C47.5098 32.8743 48.179 33.4577 48.3848 34.2469C48.4706 34.5386 48.4535 34.8303 48.402 35.122L48.4192 35.1048L48.3677 35.2421C48.3334 35.3622 48.2991 35.4823 48.2476 35.5852L47.527 37.8157V37.7986C47.4412 38.1074 47.2867 38.3991 47.0294 38.605C48.6422 39.4286 50.5467 40.6296 52.2453 42.3282L50.8041 24.0209C50.7698 23.489 50.3237 23.0944 49.7918 23.0944H24.6728C24.1409 23.0944 23.712 23.5061 23.6605 24.0209L21.2927 54.0641C21.2413 54.6475 21.7045 55.1622 22.305 55.1622H43.5292C46.7549 49.9291 44.8675 47.1324 41.7105 45.5539Z" fill="#EEA941"/>
<path d="M53.0862 54.5617C53.1033 54.5274 53.1205 54.4931 53.1205 54.4588C53.1205 54.4931 53.1033 54.5274 53.0862 54.5617Z" fill="#EEA941"/>
<path d="M41.7105 45.5539L40.5437 48.5393L40.5266 48.6766C40.4923 48.8825 40.3893 49.0541 40.2864 49.2256L40.2692 49.26V49.2428C40.029 49.586 39.6859 49.8433 39.2569 49.9291C38.6221 50.0492 37.9701 49.7918 37.6098 49.2771L34.5042 44.8333C30.6952 47.8187 26.2856 50.1007 21.4986 51.4218L21.2927 54.0813C21.2413 54.6647 21.7045 55.1794 22.305 55.1794H43.5292C46.7549 49.9291 44.8675 47.1324 41.7105 45.5539Z" fill="#ED793F"/>
<path d="M52.2625 42.3454C50.5639 40.6468 48.6422 39.4286 47.0466 38.6221C47.3039 38.3991 47.4584 38.1246 47.5442 37.8157V37.8329L48.2648 35.6024C48.3163 35.4823 48.3506 35.3793 48.3849 35.2592L48.4364 35.1219L48.4192 35.1391C48.4707 34.8474 48.4707 34.5557 48.402 34.2641C48.179 33.4748 47.527 32.8743 46.7034 32.7713L44.7474 32.4968C46.2573 29.5628 47.3897 26.423 48.0932 23.1115H49.8261C50.358 23.1115 50.787 23.5233 50.8384 24.038L52.2625 42.3454Z" fill="#ED793F"/>
<path d="M44.3185 38.828C43.7694 38.6221 43.6665 37.8844 44.1298 37.524L46.8578 35.3965C47.3897 34.9847 47.1667 34.1268 46.4975 34.041L30.3006 31.8277C29.6486 31.7419 29.1853 32.4797 29.58 33.0115C32.634 37.3868 35.6881 41.7792 38.7422 46.1544C39.1197 46.7034 39.9776 46.5319 40.1148 45.8799L40.8526 42.414C40.9556 41.9507 41.4531 41.6762 41.8821 41.865C45.6911 43.5293 48.2133 46.9265 48.3506 50.5811C48.4192 52.4513 47.8358 54.0298 47.2182 55.1622H52.1596C52.743 55.1622 53.2062 54.6647 53.1719 54.0641L52.417 44.4215C49.8433 41.2473 46.2402 39.5487 44.3185 38.828Z" fill="#884594"/>
<path d="M45.5882 21.6016H43.7867C43.3577 21.6016 43.0317 21.2585 42.9631 20.8467C42.5856 18.0156 40.1664 15.8366 37.2324 15.8366C34.2984 15.8366 31.8792 18.0156 31.5017 20.8467C31.4502 21.2756 31.1242 21.6016 30.6781 21.6016H28.8766C28.4133 21.6016 28.0187 21.207 28.053 20.7437C28.4819 16.0768 32.4282 12.4051 37.2152 12.4051C42.0023 12.4051 45.9485 16.0768 46.3775 20.7437C46.4461 21.207 46.0515 21.6016 45.5882 21.6016Z" fill="#EEA941"/>
</svg>
