<svg width="8" height="6" viewBox="0 0 8 6" fill="none" xmlns="http://www.w3.org/2000/svg">
<path d="M7.74978 0.877518C7.60926 0.73783 7.41917 0.659424 7.22103 0.659424C7.02289 0.659424 6.8328 0.73783 6.69228 0.877518L3.99978 3.53252L1.34478 0.877518C1.20426 0.73783 1.01417 0.659424 0.816028 0.659424C0.617889 0.659424 0.4278 0.73783 0.287278 0.877518C0.216982 0.94724 0.161186 1.03019 0.12311 1.12159C0.0850332 1.21298 0.0654297 1.31101 0.0654297 1.41002C0.0654297 1.50903 0.0850332 1.60706 0.12311 1.69845C0.161186 1.78985 0.216982 1.8728 0.287278 1.94252L3.46728 5.12252C3.537 5.19281 3.61995 5.24861 3.71135 5.28669C3.80274 5.32476 3.90077 5.34437 3.99978 5.34437C4.09879 5.34437 4.19682 5.32476 4.28821 5.28669C4.37961 5.24861 4.46256 5.19281 4.53228 5.12252L7.74978 1.94252C7.82008 1.8728 7.87587 1.78985 7.91395 1.69845C7.95202 1.60706 7.97163 1.50903 7.97163 1.41002C7.97163 1.31101 7.95202 1.21298 7.91395 1.12159C7.87587 1.03019 7.82008 0.94724 7.74978 0.877518Z" fill="black"/>
</svg>
